<svg version="1.1" xmlns="http://www.w3.org/2000/svg" viewBox="0 0 1829.677231015074 492.464825071001" width="5489.031693045223" height="1477.3944752130028">
  <!-- svg-source:excalidraw -->
  
  <defs>
    <style>
      @font-face {
        font-family: "Virgil";
        src: url("https://excalidraw.com/Virgil.woff2");
      }
      @font-face {
        font-family: "Cascadia";
        src: url("https://excalidraw.com/Cascadia.woff2");
      }
    </style>
  </defs>
  <rect x="0" y="0" width="1829.677231015074" height="492.464825071001" fill="#ffffff"></rect><g stroke-linecap="round" transform="translate(421.57899871290044 49.0082960890594) rotate(0 146.1388885842349 132.11317481918456)"><path d="M-1.81 0.44 C108.68 -2.94, 214.99 -0.9, 292.52 2.51 M-0.74 0.78 C91.36 1.13, 184.48 0.79, 292.23 -1.03 M291.27 -0.17 C291.5 87.9, 288.66 177.85, 291.79 262.53 M292.52 -0.48 C293.02 82.05, 292.78 163.65, 293.46 262.76 M293.67 262.46 C219.62 264.97, 144.81 266.32, -2.89 264.61 M293.53 264.61 C202.71 265.65, 116.69 264.79, 0.8 265.08 M3.02 267.13 C5.73 186.77, 4.47 106.53, 0.36 -2.99 M-0.06 263.49 C2.76 185.59, 1.55 108.33, 0.71 0.92" stroke="#000000" stroke-width="1" fill="none"></path></g><g transform="translate(483.7086787819535 75.70165412432414) rotate(0 87.5 12.5)"><text x="0" y="18" font-family="Virgil, Segoe UI Emoji" font-size="20px" fill="#000000" text-anchor="start" style="white-space: pre;" direction="ltr">Attendance Input</text></g><g stroke-linecap="round" transform="translate(488.1343265290992 268.09868720704765) rotate(0 74.47097594197027 15.302255330541811)"><path d="M3.8 3.66 C48.23 1.22, 90.95 -0.84, 149.39 -3.77 M-0.07 -0.93 C45.12 -2.25, 87.14 -2.29, 149.83 1.16 M152.04 -3.4 C150.35 6.35, 147.24 23.71, 148.26 32.35 M147.6 -0.05 C151.03 7.5, 147.51 14.45, 148.16 32.31 M149.33 32.66 C110.33 32.92, 75.2 31.7, 1.19 33.89 M150.01 29.07 C117.76 29.78, 85.34 29.84, 1.27 28.95 M2.77 28.67 C-2.56 20.67, -3.47 17.44, -3.66 2.16 M0.82 29.16 C-2.46 25.02, -0.14 17.1, 0 -1.01" stroke="#000000" stroke-width="1" fill="none"></path></g><g transform="translate(545.7812320793506 268.0738322313176) rotate(0 23.5 12.5)"><text x="0" y="18" font-family="Virgil, Segoe UI Emoji" font-size="20px" fill="#000000" text-anchor="start" style="white-space: pre;" direction="ltr">save</text></g><g stroke-linecap="round" transform="translate(446.02476639398594 124.04542132351344) rotate(0 123.86628772103336 63.49009607170967)"><path d="M0 0 C0 0, 0 0, 0 0 M0 0 C0 0, 0 0, 0 0 M1.24 7.98 C0.17 5.67, 3.53 4.03, 5.36 1.75 M0.24 5.65 C2.28 3.96, 3.71 1.63, 5.47 0.45 M-0.49 11.17 C1.76 10.41, 5.05 3.05, 13.71 0.32 M0.28 10.54 C2.55 10.05, 4.89 6.19, 11.76 -0.16 M2.64 21.86 C7.48 11.01, 3.87 10.72, 13.88 1.13 M-0.3 17.4 C3.47 12.63, 8.81 8.77, 16.92 -0.18 M3.29 20.82 C8.95 13.82, 12.05 6.7, 20.76 3.51 M-1.52 22.92 C5.01 18.31, 12.65 8.46, 21.69 -0.98 M2.98 27.21 C5.82 16.66, 15.15 9.39, 26.85 1.29 M0.8 30.98 C5.45 23.09, 10.82 17.08, 27.39 1.05 M0.07 34.36 C7.18 29.34, 16.17 19.73, 28.61 0.06 M-0.9 38.3 C8.05 25.73, 17.92 16.25, 33.32 0.98 M4.02 41.45 C14.67 25.59, 26.41 11.78, 34.32 0.88 M0.91 44.51 C9.16 33.57, 21.02 21.45, 38.53 1.48 M-2.24 49.39 C13.63 32.67, 28.46 20.97, 45.73 -0.09 M1.75 48.62 C12.68 32.68, 25.12 18.02, 43.97 -0.98 M-1.29 53.17 C13.64 37.78, 26.11 23.15, 49.19 4.03 M-1.55 55.92 C14.17 40.01, 28.43 21.55, 46 0.05 M1.87 57.54 C15.57 43.48, 31.01 26.46, 53.26 -1.53 M-1.18 62.2 C17.58 35.82, 37.89 14.66, 54.47 -0.83 M0.79 69.3 C16.24 43.53, 41.53 25.78, 55.83 2.44 M-1.04 68.64 C16.89 49.59, 31.22 31.82, 58.26 -0.62 M-2.01 69.25 C14.34 58.86, 35.77 37.05, 65.77 -3.28 M0.15 74.31 C24.37 46.04, 45.58 18.56, 63.4 -1.81 M3.37 76.03 C30.81 48.06, 56.84 16, 70.03 3.35 M-0.29 78.54 C14.39 60.83, 32.07 42.03, 70.55 -0.15 M3.17 86.52 C19.37 57.71, 49.19 31.71, 71.27 -2.81 M-1.65 85.93 C19.25 62.04, 38.22 42.24, 73.14 1.55 M3.08 95.43 C24.12 58.87, 49.18 30.95, 79.01 1.59 M-0.2 92.47 C24.4 62.64, 49.14 35.74, 78.88 1.55 M-2.76 99.69 C22.08 73.13, 40.71 50.99, 83.21 -0.02 M-1.84 98.53 C19.88 73.08, 42.24 48.57, 83.85 1.44 M-1.39 106.32 C21.07 76.99, 39.52 57.33, 93.44 -0.47 M0.77 103.25 C28.8 73.02, 53.02 41.37, 90.06 -1.73 M1.41 112.36 C18.64 81.69, 36.82 61.42, 96.48 -1.25 M1.06 109.02 C36.35 68.98, 72.29 26.89, 95.48 -1.23 M2.09 113.14 C38.85 68.78, 77.38 24.06, 103.43 3.13 M-0.07 116.41 C31.56 83.9, 60.02 45.92, 99.66 -0.46 M-1.6 117.99 C31.09 90.92, 55.04 65.26, 107.39 0.73 M-0.65 120.32 C34.48 82.08, 69.3 43.31, 105.74 1.19 M3.09 125.84 C23.9 96.77, 45.41 71.57, 114.52 1.87 M0.38 128.21 C34.32 92.9, 65.89 54.28, 110.04 0.59 M8.9 126.04 C26.1 99.3, 53.06 78.4, 117.05 -0.55 M6.67 125.48 C49.73 77.2, 92.02 28.32, 115.48 1.78 M7.14 127.89 C50.54 84.01, 92.72 37.26, 119.69 -3.16 M11.48 127.55 C49.3 85.75, 87.03 39.75, 120.36 0.38 M17.82 125.84 C57.18 78.21, 97.02 29.42, 129.98 -0.24 M18.23 125.61 C51.42 86.3, 87.07 44.9, 125.29 2.11 M24.16 124.46 C55.12 84.93, 90.44 47.72, 135.35 -3.35 M23.41 126.19 C65.98 76.71, 108.41 26.59, 132.53 -0.4 M30.24 126.04 C60.44 80.33, 99.95 39.62, 138.16 2.32 M28.73 127.28 C62.9 86.54, 96.31 45.61, 137.58 -1.28 M32.06 126.22 C59.79 98.71, 83.45 66.53, 141.36 -2.49 M32.61 128.56 C65.03 93.65, 98.91 53.5, 141.26 -1.37 M35.26 125.6 C63.97 90.38, 92.83 62.71, 151.64 -3.4 M38.26 127.53 C82.71 79.76, 125.98 32.66, 149.21 2.11 M42.16 125.38 C86.81 78.02, 131.11 27.82, 157.02 3.16 M41.28 125.77 C84.7 81.79, 124.32 37.93, 152.03 -0.4 M44.77 131.76 C87.23 79.75, 126.05 41.57, 161.96 -2.36 M49.02 125.83 C91.43 80.55, 132.01 32.85, 160.79 -0.49 M55.21 123.75 C93.3 83.19, 132.35 39.63, 165.04 -3.06 M55.45 125.68 C75.38 98.8, 99.94 75.48, 163.12 0.33 M60.06 129.1 C85.14 98.03, 119.4 65.55, 170.05 2.05 M57.97 127.15 C100.99 77.17, 143.43 32.2, 170.74 0.86 M65.41 128.65 C102.34 87.95, 132.92 47.94, 171.61 1.7 M62.88 126.86 C99.6 84.25, 132.89 42.01, 175.57 0.38 M71.9 127.98 C103.69 89.32, 138.56 44.14, 182.3 -0.03 M70.88 128.42 C104.5 87.6, 138.57 45.87, 181.24 0.83 M72.41 125.01 C103.12 92.49, 133.74 64.43, 186.31 -4.1 M75.15 128.59 C108.76 86.82, 142.38 49.73, 187.21 -0.99 M83.13 125.62 C107.95 94.01, 134.39 67.22, 190.54 3.14 M78.94 129.52 C121.78 79.49, 164.9 31.47, 192.28 0.79 M85.26 127.29 C126.05 75.58, 165.43 30.91, 194.2 -2.45 M85.6 128.88 C131.1 75.87, 173.94 27.41, 194.66 1.23 M88.06 126.75 C112.25 95.68, 139.25 71.5, 200.02 0.84 M92.15 128.08 C127.7 86.31, 166.05 46.27, 199.59 -1.16 M94.49 127.54 C141.15 75.98, 181.19 29.93, 207.76 -3.8 M95.36 126.45 C137.21 77.13, 183.02 28.37, 207.31 -0.27 M100.4 123.7 C130.3 94.42, 163.47 59.08, 209.44 3.92 M101.28 129.43 C126.35 100.53, 149.55 75.06, 212.71 -0.19 M108.05 123.35 C134.17 97.73, 162.37 60.84, 214.9 -3.01 M107.34 126.75 C138.15 93.36, 166.7 57.85, 217.33 0.95 M109.32 124.35 C135.25 102.02, 158.53 71.95, 222.94 0.78 M111.87 128.62 C145.6 87.08, 182.33 48.38, 220.96 1.22 M115.31 129.89 C151.18 83.22, 190.28 48.11, 230.97 0.61 M116.22 127.93 C140.77 104, 163.89 77.48, 229.68 -0.98 M123.43 124.14 C163.22 79.16, 200.03 33.32, 230.09 1.41 M122.26 128.42 C157.82 88.33, 189.82 48.76, 231.44 -0.67 M131.1 127.87 C161.45 86.85, 201.03 49.99, 238.11 0.08 M126.48 126.88 C168.16 76.71, 212.51 29.77, 239.44 -1.42 M134.78 126.08 C164.38 85.43, 200.76 54, 241.91 1.35 M133.56 129.32 C177.35 82.06, 217.23 33.93, 243.02 -0.88 M135.68 123.59 C177.71 83.87, 214.38 39.64, 247.87 -2.31 M138.38 125.19 C171.25 82.69, 208.48 41.59, 248.44 1.68 M146.84 128.72 C171.14 90.13, 211.41 54.05, 248.94 8.47 M143.65 127.54 C169.44 98.78, 199.34 65.15, 250.45 7.07 M150.75 128.89 C175.74 88.19, 209.18 52.15, 250.1 10.42 M149.94 127.19 C190.61 81.98, 227.75 37.05, 248.17 11.23 M154.52 130.21 C177.89 99.71, 208.88 66.45, 246.36 15.93 M153.22 128.99 C188.83 87.49, 224.19 44.62, 247.5 18.08 M162.8 125.93 C187.36 96.44, 213.29 60.85, 245.71 23.62 M158.32 126.67 C181.29 103.17, 206.55 72.27, 246.52 26.66 M164.19 124.24 C180.9 110.23, 196.46 85.97, 250.11 34.68 M163.72 127.32 C184.34 105.33, 201.75 84.57, 248.96 30.01 M169.7 124.19 C188.74 102.73, 212.91 81.7, 246.6 36.55 M168.43 125.86 C190.13 101.35, 213.21 76.96, 249.7 35.46 M173.63 128.05 C192.4 109.95, 207.36 92.95, 252.28 43.25 M175.39 125.9 C191.05 111.03, 204.01 93.14, 248.19 43.45 M180.8 128.95 C201.08 99.46, 229.08 70.8, 244.73 51.28 M179 126.01 C201.75 103.18, 224.32 80.53, 249.34 48.08 M184.08 130.47 C199.01 115.34, 209.56 98.28, 248.39 55.49 M185.24 127.82 C206.27 106.33, 224.76 81.56, 250.29 55.47 M191.57 126.32 C213.06 103.7, 233.43 80.37, 247.54 61.43 M191.18 126.3 C204.63 111.07, 218.82 92.62, 247.87 60.72 M196.2 127.88 C216.7 102.02, 237.05 80.48, 245.41 65.05 M197.08 125.87 C209.54 108.63, 225.92 96.29, 250.16 66.1 M202.88 127.94 C216.56 110.66, 241.18 86.56, 249.2 72.97 M201.92 126.64 C220.85 111.75, 235.98 89.42, 247.85 74.01 M206.09 128.22 C217.07 115.77, 232.27 100.43, 252.42 78.42 M207.48 128.57 C216.98 111.99, 232.42 101.2, 249.15 81.35 M209.05 127.05 C216.74 116.26, 229.74 113.71, 245.34 89.12 M213.92 125.67 C221.12 114.24, 232.76 104.92, 248.57 88.06 M217.31 130.99 C228.54 120.27, 235.32 106.22, 251.93 95.62 M219.81 126.17 C230.15 112.85, 241.89 101.7, 248.38 91.95 M225.86 126.44 C232.96 117.7, 238.21 110.34, 249.02 94.96 M221.7 126.73 C228.43 122.78, 232.32 114.28, 248.14 96.97 M228.81 123.26 C234.65 122.9, 235.55 113.89, 251.23 107.02 M230.21 128.62 C233.59 122.19, 235.22 118.46, 250.11 104.09 M230.49 126.44 C239.11 118.62, 243.61 118.33, 249.41 106.38 M233.54 127.89 C236 123.67, 239.96 120.54, 248.11 111.77 M239.1 124.71 C240.24 123.4, 248.4 118.09, 248.85 117.76 M238.1 127.47 C242.09 123.56, 244 121.13, 249.78 117.87 M244.65 127.96 C245.98 126.92, 245.01 126.25, 247.67 121.97 M244.63 127.65 C245.32 126.57, 246.35 124.14, 248.78 123.3" stroke="#868e96" stroke-width="0.5" fill="none"></path><path d="M-2.29 2.66 C72.44 -0.86, 148.38 -5.42, 250.13 0.59 M1.45 0.54 C82.06 2.12, 163.66 3.59, 248.31 -1.43 M250.17 2.25 C249.56 28.56, 250.37 58.68, 244.31 123.93 M249.43 -0.63 C245.06 35.83, 247.44 71, 246.42 126.39 M246.47 124.17 C153.84 128.39, 62.99 123.42, -1.92 126.12 M246.32 126.63 C177.33 126.33, 109.04 127.64, 0.11 126.94 M3.85 127.85 C-0.39 98.77, -5.55 73.42, -1.43 0.01 M0.24 126.52 C3.15 86.85, -0.35 52.15, 0.79 1.45" stroke="#000000" stroke-width="1" fill="none"></path></g><g stroke-linecap="round" transform="translate(468.8135775004124 139.8847069911941) rotate(0 17.327567419646925 19.252852688496546)"><path d="M0.81 0.91 L31.11 -2.82 L34.32 36.43 L-3.6 38.14" stroke="none" stroke-width="0" fill="#ced4da"></path><path d="M0.3 0.48 C9.49 3.94, 17.3 -3.06, 38.51 1.59 M0.37 0.83 C13.03 1.03, 26 1.24, 33.47 1.76 M34.9 -0.46 C37.21 14.02, 34.24 30.5, 31.62 40.79 M34.74 1.87 C36.13 12.13, 35.01 27.81, 35.24 38.97 M31.7 41.03 C17.53 42.14, 6.54 39.44, -1.65 40.94 M33.1 38.12 C23.34 37.69, 14.2 37.82, -1.29 40.43 M1.89 38.86 C-2.99 27.14, 2.11 15.73, -2.21 2.83 M-0.3 39.89 C2.34 29.24, -1.13 14.47, 0.08 -0.87" stroke="#000000" stroke-width="1" fill="none"></path></g><g stroke-linecap="round" transform="translate(523.6842076626275 143.73527752889356) rotate(0 17.327567419646925 19.252852688496546)"><path d="M2.37 0.91 L31.08 -2.32 L31.62 42.22 L-0.87 37.6" stroke="none" stroke-width="0" fill="#ced4da"></path><path d="M2.34 0.08 C11.63 2.7, 21.48 2.37, 36.17 -2.64 M1.98 -0.88 C14.15 1.14, 27.15 -0.18, 36.39 1.48 M30.94 3.24 C32.79 14.3, 32.44 29.96, 35.09 38.24 M34.11 -0.89 C35.15 11.21, 32.77 25.86, 34.88 36.54 M30.91 39.13 C26.34 39.75, 13.1 41.4, -0.32 35.25 M36.37 40.49 C24.38 37.44, 17.71 38.12, 0.4 38.96 M-2.08 34.9 C0.18 27.27, 4.14 24.82, -1.01 0.94 M-1.63 39.33 C-0.7 27.85, -0.36 18.99, 1.79 0.24" stroke="#000000" stroke-width="1" fill="none"></path></g><g stroke-linecap="round" transform="translate(586.2559789002411 143.73527752889333) rotate(0 17.327567419646925 19.252852688496546)"><path d="M-2.74 -0.67 L35.26 1 L31.25 41.69 L-0.96 40.09" stroke="none" stroke-width="0" fill="#ced4da"></path><path d="M3.48 2.97 C15.8 -3.11, 29.53 -3.88, 37.9 -1.3 M0.22 -0.13 C11.08 -1.97, 21.34 -0.96, 33.77 1.1 M35.1 -3.94 C33.32 11.98, 34.52 16.43, 35.27 39.86 M34.5 -1.63 C33.14 12.39, 35.61 27.1, 36.64 36.75 M35.46 39.41 C23.38 35.38, 18.86 36.13, -3.6 38.14 M34.15 38.97 C25.95 37.09, 20.74 37.33, 0.83 37.08 M3.58 38.99 C2.79 29.82, -3.16 17, -3.04 3.71 M-0.92 39.36 C0.53 26.7, 1.66 15.44, -1.54 -1.88" stroke="#000000" stroke-width="1" fill="none"></path></g><g transform="translate(741.2287808621971 390.40702604681235) rotate(0 75.5 30)"><text x="0" y="14" font-family="Virgil, Segoe UI Emoji" font-size="16px" fill="#000000" text-anchor="start" style="white-space: pre;" direction="ltr">Save data </text><text x="0" y="34" font-family="Virgil, Segoe UI Emoji" font-size="16px" fill="#000000" text-anchor="start" style="white-space: pre;" direction="ltr">API view (POST) </text><text x="0" y="54" font-family="Virgil, Segoe UI Emoji" font-size="16px" fill="#000000" text-anchor="start" style="white-space: pre;" direction="ltr">through fetch post</text></g><g stroke-linecap="round"><g transform="translate(617.3350749518975 290.0088254374838) rotate(0 53.78467182697432 54.982720940910326)"><path d="M-0.15 1.07 C18.16 19.41, 91 91.62, 109.26 109.37 M-1.69 0.59 C16.53 18.64, 89.98 89.67, 108.39 107.62" stroke="#000000" stroke-width="1" fill="none"></path></g><g transform="translate(617.3350749518975 290.0088254374838) rotate(0 53.78467182697432 54.982720940910326)"><path d="M82.8 95.59 C88.95 98.89, 92.79 100.34, 106.87 109.48 M80.56 95.77 C88.78 98.16, 96.96 101.31, 107.62 106.68" stroke="#000000" stroke-width="1" fill="none"></path></g><g transform="translate(617.3350749518975 290.0088254374838) rotate(0 53.78467182697432 54.982720940910326)"><path d="M97.1 80.86 C99.61 87.82, 99.89 92.93, 106.87 109.48 M94.85 81.05 C99.06 87.57, 103.27 94.81, 107.62 106.68" stroke="#000000" stroke-width="1" fill="none"></path></g></g><g transform="translate(745.092013580338 361.9189392531524) rotate(0 28.5 12.5)"><text x="0" y="18" font-family="Virgil, Segoe UI Emoji" font-size="20px" fill="#000000" text-anchor="start" style="white-space: pre;" direction="ltr">/save</text></g><g transform="translate(782.5316665384152 109.39290599919593) rotate(0 60.5 30)"><text x="0" y="14" font-family="Virgil, Segoe UI Emoji" font-size="16px" fill="#000000" text-anchor="start" style="white-space: pre;" direction="ltr">load data </text><text x="0" y="34" font-family="Virgil, Segoe UI Emoji" font-size="16px" fill="#000000" text-anchor="start" style="white-space: pre;" direction="ltr">SERIALIZERS </text><text x="0" y="54" font-family="Virgil, Segoe UI Emoji" font-size="16px" fill="#000000" text-anchor="start" style="white-space: pre;" direction="ltr">through fetch</text></g><g stroke-linecap="round"><g transform="translate(770.645475003052 142.54252737699505) rotate(0 -47.48905908726579 29.37859778553201)"><path d="M0.3 0.06 C-15.58 10.66, -79.79 51.01, -95.28 61.14 M-2.98 -2.38 C-17.96 7.71, -74.67 47.68, -89.85 57.49" stroke="#000000" stroke-width="1" fill="none"></path></g><g transform="translate(770.645475003052 142.54252737699505) rotate(0 -47.48905908726579 29.37859778553201)"><path d="M-72.2 30.63 C-74.43 41.75, -80.2 50.41, -86.78 61.48 M-71.86 32.97 C-76.68 40.11, -83.18 47.44, -90.06 58.52" stroke="#000000" stroke-width="1" fill="none"></path></g><g transform="translate(770.645475003052 142.54252737699505) rotate(0 -47.48905908726579 29.37859778553201)"><path d="M-60.68 47.61 C-66.08 53.63, -75.32 57.18, -86.78 61.48 M-60.34 49.96 C-68.29 52.18, -78.05 54.71, -90.06 58.52" stroke="#000000" stroke-width="1" fill="none"></path></g></g><g transform="translate(779.1637848179515 77.32729000110339) rotate(0 109 12.5)"><text x="0" y="18" font-family="Virgil, Segoe UI Emoji" font-size="20px" fill="#000000" text-anchor="start" style="white-space: pre;" direction="ltr">/get/classdata/ME4A</text></g><g stroke-linecap="round"><g transform="translate(1100.269010953442 121.81595959975652) rotate(0 -68.32750486100349 7.565833452415234)"><path d="M0.26 1.99 C-22.24 3.47, -111.87 9.39, -134.55 10.87 M-3.04 0.61 C-25.98 2.4, -114.35 12.29, -136.91 14.53" stroke="#000000" stroke-width="1" fill="none"></path></g><g transform="translate(1100.269010953442 121.81595959975652) rotate(0 -68.32750486100349 7.565833452415234)"><path d="M-107.11 1.02 C-118.23 3.44, -126.75 6.56, -139.06 14.55 M-109.86 1.74 C-117.49 4.03, -122.48 5.65, -137.05 13.2" stroke="#000000" stroke-width="1" fill="none"></path></g><g transform="translate(1100.269010953442 121.81595959975652) rotate(0 -68.32750486100349 7.565833452415234)"><path d="M-104.95 21.43 C-117.04 17.39, -126.24 14.05, -139.06 14.55 M-107.7 22.15 C-115.77 20.03, -121.22 17.27, -137.05 13.2" stroke="#000000" stroke-width="1" fill="none"></path></g></g><g transform="translate(1657.6772310150736 212.709330917305) rotate(0 81.00000000000011 12.5)"><text x="0" y="18" font-family="Virgil, Segoe UI Emoji" font-size="20px" fill="#000000" text-anchor="start" style="white-space: pre;" direction="ltr">Classroom Model</text></g><g transform="translate(1139.7754936945166 63.51529300132154) rotate(0 175.5 62.5)"><text x="0" y="18" font-family="Virgil, Segoe UI Emoji" font-size="20px" fill="#000000" text-anchor="start" style="white-space: pre;" direction="ltr">Serializer View:</text><text x="0" y="43" font-family="Virgil, Segoe UI Emoji" font-size="20px" fill="#000000" text-anchor="start" style="white-space: pre;" direction="ltr">classroom data giver ( classcode ):</text><text x="0" y="68" font-family="Virgil, Segoe UI Emoji" font-size="20px" fill="#000000" text-anchor="start" style="white-space: pre;" direction="ltr">    figure out classcode</text><text x="0" y="93" font-family="Virgil, Segoe UI Emoji" font-size="20px" fill="#000000" text-anchor="start" style="white-space: pre;" direction="ltr">    return proper classroom data</text><text x="0" y="118" font-family="Virgil, Segoe UI Emoji" font-size="20px" fill="#000000" text-anchor="start" style="white-space: pre;" direction="ltr"></text></g><g stroke-linecap="round"><g transform="translate(1640.3496635954266 218.82140301403024) rotate(0 -57.0429203046981 -33.0830155688044)"><path d="M-0.13 -2.05 C-19.39 -12.91, -93.9 -54.31, -113.22 -64.94 M-3.65 3.01 C-23.24 -8.7, -94.91 -58.26, -113.96 -69.17" stroke="#000000" stroke-width="1" fill="none"></path></g><g transform="translate(1640.3496635954266 218.82140301403024) rotate(0 -57.0429203046981 -33.0830155688044)"><path d="M-87.6 -58.7 C-93.87 -65.29, -106.41 -67.91, -114.24 -66.55 M-84.06 -64.52 C-94.78 -65.15, -104.72 -69.02, -112.94 -68.85" stroke="#000000" stroke-width="1" fill="none"></path></g><g transform="translate(1640.3496635954266 218.82140301403024) rotate(0 -57.0429203046981 -33.0830155688044)"><path d="M-98.63 -41.4 C-100.7 -54.62, -109 -63.89, -114.24 -66.55 M-95.09 -47.22 C-101.83 -53.75, -108.02 -63.5, -112.94 -68.85" stroke="#000000" stroke-width="1" fill="none"></path></g></g><g transform="translate(1630.5262342824326 53.051072870451435) rotate(0 94 12.5)"><text x="0" y="18" font-family="Virgil, Segoe UI Emoji" font-size="20px" fill="#000000" text-anchor="start" style="white-space: pre;" direction="ltr">ClassroomSerializer</text></g><g stroke-linecap="round"><g transform="translate(1761.8526541833871 213.9472858699511) rotate(0 -18.539817474133088 -61.43982518683498)"><path d="M-2.21 2.64 C-8.67 -18.65, -30.76 -104.36, -36.12 -125.52 M1.79 1.61 C-5.37 -19.49, -32.61 -101.99, -38.87 -122.44" stroke="#000000" stroke-width="1" fill="none"></path></g><g transform="translate(1761.8526541833871 213.9472858699511) rotate(0 -18.539817474133088 -61.43982518683498)"><path d="M-16.73 -100.06 C-29.58 -107.23, -35.1 -121.64, -35.07 -120.09 M-19.51 -100.64 C-28.36 -106.25, -33.41 -112.22, -36.92 -121.77" stroke="#000000" stroke-width="1" fill="none"></path></g><g transform="translate(1761.8526541833871 213.9472858699511) rotate(0 -18.539817474133088 -61.43982518683498)"><path d="M-36.27 -93.8 C-41.51 -103.14, -39.31 -120.02, -35.07 -120.09 M-39.06 -94.38 C-41.67 -101.89, -40.45 -109.87, -36.92 -121.77" stroke="#000000" stroke-width="1" fill="none"></path></g></g><g stroke-linecap="round"><g transform="translate(1624.6569559566929 71.73811460558272) rotate(0 -55.729072572218115 17.772885652697198)"><path d="M2.54 2.72 C-16.22 8.2, -92.87 26.29, -112.27 31.45 M0.47 1.73 C-18.59 7.61, -94.58 27.98, -114 33.81" stroke="#000000" stroke-width="1" fill="none"></path></g><g transform="translate(1624.6569559566929 71.73811460558272) rotate(0 -55.729072572218115 17.772885652697198)"><path d="M-85.77 17.61 C-100.68 21.22, -105.03 27.02, -113.02 34.8 M-88.49 17 C-95.79 22.6, -103.27 25.17, -113.11 34.82" stroke="#000000" stroke-width="1" fill="none"></path></g><g transform="translate(1624.6569559566929 71.73811460558272) rotate(0 -55.729072572218115 17.772885652697198)"><path d="M-80.19 37.36 C-96.63 34.96, -102.7 34.66, -113.02 34.8 M-82.91 36.74 C-91.8 37, -100.78 34.28, -113.11 34.82" stroke="#000000" stroke-width="1" fill="none"></path></g></g><g stroke-linecap="round"><g transform="translate(906.0096519859502 432.61270561685126) rotate(0 88.89886108778842 -1.8117223068928752)"><path d="M2.21 -2.12 C31.39 -3.44, 148.64 -5.55, 177.83 -6.53 M-0.03 2.91 C28.78 1.93, 147.63 -1.48, 177.1 -2.93" stroke="#000000" stroke-width="1" fill="none"></path></g><g transform="translate(906.0096519859502 432.61270561685126) rotate(0 88.89886108778842 -1.8117223068928752)"><path d="M146.29 12.35 C160.21 6.7, 169.15 -0.47, 178.93 -1.85 M149.66 8.2 C159.55 3.21, 171.5 1.58, 178.23 -1.72" stroke="#000000" stroke-width="1" fill="none"></path></g><g transform="translate(906.0096519859502 432.61270561685126) rotate(0 88.89886108778842 -1.8117223068928752)"><path d="M145.52 -8.16 C159.96 -5.64, 169.21 -4.63, 178.93 -1.85 M148.9 -12.3 C158.88 -9.67, 171.12 -3.67, 178.23 -1.72" stroke="#000000" stroke-width="1" fill="none"></path></g></g><g transform="translate(1104.8969455438883 382.464825071001) rotate(0 169.5 50)"><text x="0" y="18" font-family="Virgil, Segoe UI Emoji" font-size="20px" fill="#000000" text-anchor="start" style="white-space: pre;" direction="ltr">View:</text><text x="0" y="43" font-family="Virgil, Segoe UI Emoji" font-size="20px" fill="#000000" text-anchor="start" style="white-space: pre;" direction="ltr">Attendance data saver ():</text><text x="0" y="68" font-family="Virgil, Segoe UI Emoji" font-size="20px" fill="#000000" text-anchor="start" style="white-space: pre;" direction="ltr">    convert json -&gt; python objects</text><text x="0" y="93" font-family="Virgil, Segoe UI Emoji" font-size="20px" fill="#000000" text-anchor="start" style="white-space: pre;" direction="ltr">    object.save()</text></g><g stroke-linecap="round"><g transform="translate(1447.665542311132 433.15634183327063) rotate(0 50.7003103391429 1.1408884775374872)"><path d="M-0.9 1.53 C16.04 1.24, 85.15 -0.32, 102.3 -0.04 M3.8 -0.11 C20.36 -0.27, 84.21 2.66, 100.29 2.38" stroke="#000000" stroke-width="1" fill="none"></path></g><g transform="translate(1447.665542311132 433.15634183327063) rotate(0 50.7003103391429 1.1408884775374872)"><path d="M74.09 12.71 C77.77 9.31, 91.56 5.8, 102.67 4.2 M70.18 10.9 C80.92 8.49, 90.4 5.85, 101.99 0.77" stroke="#000000" stroke-width="1" fill="none"></path></g><g transform="translate(1447.665542311132 433.15634183327063) rotate(0 50.7003103391429 1.1408884775374872)"><path d="M74.46 -7.8 C78.27 -4.59, 91.94 -1.48, 102.67 4.2 M70.55 -9.62 C81.55 -5.92, 90.92 -2.44, 101.99 0.77" stroke="#000000" stroke-width="1" fill="none"></path></g></g><g transform="translate(1594.8556570653386 399.05739509458306) rotate(0 77.5 35)"><text x="0" y="25" font-family="Virgil, Segoe UI Emoji" font-size="28px" fill="#000000" text-anchor="start" style="white-space: pre;" direction="ltr">Attendance</text><text x="0" y="60" font-family="Virgil, Segoe UI Emoji" font-size="28px" fill="#000000" text-anchor="start" style="white-space: pre;" direction="ltr">Model</text></g><g transform="translate(434.9457167328718 10) rotate(0 138 12.5)"><text x="0" y="18" font-family="Virgil, Segoe UI Emoji" font-size="20px" fill="#000000" text-anchor="start" style="white-space: pre;" direction="ltr">/attendance/ME4A/period/4</text></g><g stroke-linecap="round"><g transform="translate(222.0088891919487 240.72728208805654) rotate(0 90.11389652947935 -30.76636693959273)"><path d="M2.61 0.73 C32.6 -9.08, 150.38 -48.64, 179.64 -58.66 M0.59 -1.33 C30.39 -11.89, 149.09 -51.84, 178.42 -62.27" stroke="#000000" stroke-width="1" fill="none"></path></g><g transform="translate(222.0088891919487 240.72728208805654) rotate(0 90.11389652947935 -30.76636693959273)"><path d="M156.17 -40.7 C165.56 -48.74, 171.3 -52.02, 181.45 -63.19 M154.09 -43.82 C160.94 -49.91, 167.57 -54.57, 176.82 -61.96" stroke="#000000" stroke-width="1" fill="none"></path></g><g transform="translate(222.0088891919487 240.72728208805654) rotate(0 90.11389652947935 -30.76636693959273)"><path d="M149.47 -60.1 C160.84 -62.63, 168.52 -60.28, 181.45 -63.19 M147.4 -63.22 C156.03 -63.76, 164.56 -62.93, 176.82 -61.96" stroke="#000000" stroke-width="1" fill="none"></path></g></g><g transform="translate(10 254.26122200109) rotate(0 161 50)"><text x="0" y="18" font-family="Virgil, Segoe UI Emoji" font-size="20px" fill="#000000" text-anchor="start" style="white-space: pre;" direction="ltr">Template View:</text><text x="0" y="43" font-family="Virgil, Segoe UI Emoji" font-size="20px" fill="#000000" text-anchor="start" style="white-space: pre;" direction="ltr">react page server ( classcode ):</text><text x="0" y="68" font-family="Virgil, Segoe UI Emoji" font-size="20px" fill="#000000" text-anchor="start" style="white-space: pre;" direction="ltr">    return "react_page.html"</text><text x="0" y="93" font-family="Virgil, Segoe UI Emoji" font-size="20px" fill="#000000" text-anchor="start" style="white-space: pre;" direction="ltr"></text></g><g stroke-linecap="round" transform="translate(1078.6471310009551 254.14240394726505) rotate(0 167.1916839434084 34.7626273545701)"><path d="M0 0 C0 0, 0 0, 0 0 M0 0 C0 0, 0 0, 0 0 M-0.28 5.03 C0.9 2.59, 3.88 1.33, 3.86 -0.73 M-0.85 5.65 C0.23 5, 1.67 3.53, 5.64 0.33 M1 13.27 C4.4 7.91, 5.35 7.64, 12.42 2.3 M0.71 12.11 C4.15 7.75, 7.44 3.32, 10.97 -1.31 M0.52 18.25 C4.36 13.09, 8.98 8.66, 19.08 -3.46 M0.77 19.25 C5 15.93, 5.27 9.36, 17.45 0.83 M-1.57 27.63 C6.1 19.45, 19.09 9.59, 23.89 3.54 M-0.22 24.23 C8.65 14.72, 14.61 5.42, 22 0.75 M2.27 32.33 C2.27 26.69, 9.33 20.02, 23.5 4.2 M0.29 29.59 C7.51 19.49, 15.99 13.07, 27.3 0.69 M0.06 38.07 C9.09 24.66, 20.62 15.57, 34.08 -3.48 M0.2 37.55 C8.08 29.19, 15.37 21.98, 31.7 1.51 M4.13 40.25 C13.64 23.94, 27.9 14.68, 40.13 2.63 M-0.98 43.15 C9.5 27.88, 21.69 16.74, 38.32 1.21 M2.86 50.65 C10.78 30.12, 28.94 20.2, 45.4 3.08 M-1.8 49.31 C12.61 31.39, 30.55 11.76, 44.42 -0.32 M2.81 56.49 C11.5 35.95, 26.05 23.22, 45.22 -0.72 M1.83 56.33 C18.75 34.94, 37.28 13.62, 46.38 1.57 M1.18 58.84 C18.73 34.82, 42.21 16.78, 53.4 -4.14 M1.61 60.8 C21.87 37.01, 42.78 16.45, 53.12 1.05 M-4.06 63.72 C20.3 38.74, 43.07 14.39, 58.59 -0.96 M1.65 69.07 C20.65 43.02, 42.05 20.8, 59.06 0.7 M3.55 74.5 C15.85 55.49, 26.65 42.87, 67.18 -1.01 M0.62 70.08 C26.34 41.99, 52.26 13.23, 65.51 0.21 M3.91 69.49 C25 49.9, 46.23 27.61, 67.62 0.23 M7.35 71.5 C26.89 52.73, 46.18 31.36, 69.66 -0.68 M14.02 74.4 C24.93 54.89, 43.1 37.19, 73.38 -4.01 M11.05 72.46 C29.55 51.21, 45.58 32.66, 73.99 -1.49 M19.52 71.87 C29.91 53.63, 51.55 34.76, 79.25 -1.39 M19.36 71.64 C30.84 53.94, 44.79 40.58, 79.21 1.93 M19.05 71.88 C40.72 46.41, 61.99 23.75, 88.25 -2.14 M23.33 70.1 C36.93 56.19, 47.76 43.83, 85.69 -1.9 M26.47 70.86 C50.31 55.37, 63.29 29.64, 91.99 -0.62 M30.16 72.79 C41.39 54.1, 52.93 39.85, 90.44 -1.18 M35.24 74.12 C55.16 50.05, 65.95 35.15, 97.56 -1 M32.17 71.42 C56.58 45.42, 76.32 19.5, 96.47 -0.09 M37.3 70.13 C51.94 57.53, 65.85 38.58, 99.9 -2.83 M40.22 69.24 C52.36 57.04, 64.53 40.6, 101.81 0.06 M43.42 69.01 C59.92 47.32, 86.45 28.39, 108.66 -2.73 M44.66 71.86 C65.64 43.38, 90.71 16.29, 104.89 1.63 M46.1 68.79 C64.2 54.31, 76.79 36.48, 112.61 -3.94 M48.74 72.08 C70.96 48.9, 92.48 21.75, 109.5 1.48 M55.96 69.88 C71.82 51.3, 92.92 35.54, 113.82 -1.28 M53.59 72.65 C75.51 50.9, 93.7 30.55, 117.58 0.51 M56.55 73.38 C85.26 47.14, 101.74 17.36, 119.32 -2.45 M59.62 71.16 C80.59 49.85, 96.6 24.82, 121.41 -1.28 M64.8 71.49 C88.6 52.1, 101.49 27.82, 128.8 2.57 M63.49 70.79 C82.54 51.05, 100.15 32.78, 125.86 0.31 M69.86 69.87 C87.15 50.91, 96.29 42.3, 132.78 -3.39 M71.5 69.13 C94.69 41.4, 117.02 17.45, 131.15 1.19 M77.45 70.03 C87.13 58.67, 100.03 39.04, 137 1.74 M76.59 73.05 C87.52 58.76, 100.64 44.12, 135.8 1.83 M80.81 67.68 C92 57.44, 102.78 40.43, 145.31 1.6 M79.73 71.42 C98.05 52.31, 111.58 37.33, 144.05 -1.93 M88.98 75.14 C107.28 51.43, 128.89 23.09, 152.01 -0.17 M86.87 70.01 C104.64 46.45, 126.18 25.46, 148.83 1.91 M89.76 71.68 C116.6 47.36, 130.71 25.08, 156.78 -1.64 M90.37 72.23 C113.21 44.68, 138.48 18.04, 155.17 0.34 M94.02 73.9 C118.15 45.54, 146.68 17.72, 157 -0.12 M97.98 70.01 C110.92 55.42, 125.99 40.88, 159.13 0.15 M106.61 70.14 C127.04 50.44, 141.44 26.99, 162.64 2.15 M102.22 72.55 C117.35 56.54, 132.3 40.26, 163.27 -1.25 M106.75 74.81 C132.64 45.78, 152.38 27.57, 172.68 0.39 M109.34 69.18 C133.02 42.2, 158.71 13.63, 167.57 0.95 M114.85 70.8 C124.9 57.44, 145.7 36.53, 173.9 -2.34 M112.77 70.14 C130.4 54.6, 141.28 37.75, 176.85 -2.17 M116.94 71.83 C131.38 53.39, 151.05 30.07, 181.35 -0.75 M118.04 69.42 C139.12 50.1, 155.18 28.46, 179.75 -0.52 M123.51 72.83 C139.89 50.33, 161.58 31.15, 189.13 -0.97 M124.25 69.55 C141.3 54.67, 157.05 36.15, 184.12 -2.11 M125.9 72.33 C148.15 44.47, 169.15 25, 186.84 -2.16 M128.94 72.43 C151.05 46.6, 171.68 22.19, 191.99 -0.3 M130.52 71.58 C156.44 44.67, 178.98 22.84, 198.44 -2.17 M132.94 72.88 C150.71 50.52, 168.76 32, 195 1.04 M142.51 69.15 C162.61 40.9, 184.72 14.62, 202.58 -3.07 M140.57 69.68 C155.13 55.09, 168.38 37.96, 201.33 0.35 M145.37 67.59 C170.88 46.47, 189.92 24.93, 203.54 -0.92 M145.83 70.71 C165.69 44.78, 186.84 19.47, 207.14 1.16 M147.21 68.54 C166.57 47.43, 188.16 31.53, 215.54 0.76 M151.22 72.42 C165.5 54.61, 180.35 38.78, 211.51 0.94 M157.11 75.1 C171.74 47.52, 188.77 32.56, 213.68 1.22 M154.64 72.71 C173.46 52.69, 187.15 34.5, 215.9 -2.11 M160.01 70.2 C180.89 45.54, 201.65 23.2, 222.25 -3.01 M160.86 69.69 C173.17 54.85, 183.23 38.53, 223.02 -0.23 M165.05 75.01 C183.65 55.6, 193.18 36.92, 225.67 0.14 M164.45 70.54 C177.9 57.84, 194.37 41.07, 228.36 -1.32 M172.48 71.27 C192.75 43.95, 213.23 24.22, 232.82 0.74 M173.21 70.29 C187.4 54.71, 201.74 34.75, 235.05 -0.08 M174.02 67.69 C202.44 45.29, 220.88 15.3, 235.25 1.92 M175.11 72.66 C200.2 46.16, 223.49 21.16, 236.68 1.51 M183.74 70.32 C202.71 42.33, 222.7 20.42, 242.89 2.54 M181.7 72.83 C199.36 53.25, 214.46 31.13, 243.51 -0.74 M190.43 68.92 C203.59 53.31, 220.02 37, 251.66 -0.2 M187.13 70.31 C206.4 49.84, 225.13 25.35, 250.69 1.86 M196.49 71.36 C215.99 41.67, 242.75 14.45, 253.7 -3.64 M191.47 71.68 C209.47 51.38, 227.78 33.87, 255.03 0.42 M194.27 73.94 C209.68 58.19, 223.87 43.94, 257.76 -1.26 M199.77 71.5 C219.91 46.22, 245.46 16.39, 259.97 -0.71 M204.98 71.84 C215.67 54.25, 229.64 40.98, 268.04 -0.36 M205.39 71.01 C222.05 52.91, 236.25 35.87, 264.96 0.84 M207.06 69.42 C232.69 46.77, 249.88 18.43, 272.6 0.38 M209.01 71.03 C229.93 45.24, 255.01 20.25, 270.47 0.34 M215.03 74.64 C235.01 46.22, 251.01 29.4, 278.24 1.22 M214.04 70.74 C232 48.1, 251.54 25.15, 275.36 -1.29 M215.9 69.44 C241.64 45.17, 261.01 21.47, 282.83 -0.21 M217.55 72.49 C242.76 48.41, 263.29 21.45, 281.88 1.38 M224.03 68.09 C246.8 44.3, 271.11 18.82, 286.23 -2.6 M225.72 72.61 C241.64 48.66, 260.69 29.13, 285.03 -0.97 M233.47 71.57 C241.8 53.42, 260.44 39.46, 294.63 -2.52 M228.78 70.23 C249.84 48.12, 268.04 25.76, 289.59 -1.48 M232.9 69.95 C259.65 41.48, 278.54 15.86, 299.47 -4.1 M236.45 70.11 C257.36 44.66, 277.67 20.12, 295.47 -0.44 M237.97 68.78 C254.47 55.42, 264.5 45.68, 305.77 3.39 M240.85 71.41 C261.69 45.56, 279.66 24.92, 302.71 1.67 M241.51 68.17 C258.76 52.37, 280.72 31.09, 311.01 -4.11 M243.32 71.28 C259.63 51.92, 278.33 36.1, 308.9 0.86 M249.19 69.48 C260.71 51.49, 280.27 39.91, 309.54 0.92 M252.61 69.94 C270.48 46.66, 289.29 25.82, 314.09 0.53 M255.22 69.88 C268.84 53.12, 280.54 38.58, 319.43 -0.02 M257.1 69.69 C271.29 58.65, 283.56 44.38, 318.27 0.24 M260.5 69.53 C278.76 47.36, 301.12 22.37, 322.85 -1.11 M261.61 72.52 C285.82 46.77, 307.03 21.89, 322.27 -1.44 M269.02 69.91 C285.24 48.01, 302.31 30.23, 324.91 2.2 M268.31 70.92 C283.03 51.68, 298.67 32.14, 329.23 -2.17 M274.78 72.22 C296.98 48.62, 313.5 27.19, 334.12 3.56 M274.15 72.65 C296.12 46.56, 316.92 18.33, 333.52 -0.98 M274.1 67.76 C293.7 52.5, 303.21 38.2, 338.54 3.06 M275.84 71.61 C298.64 50.57, 315.09 27.47, 335.55 1.54 M284.53 68.29 C305.45 52.99, 320.63 32.29, 340.14 6.92 M283.23 72.6 C301.06 46.03, 321.2 23.79, 336.62 7.25 M285.21 72.39 C300.15 52.13, 314.41 38.1, 338.36 13.51 M288.31 70.17 C301.32 54.23, 315.47 38.16, 337.07 13.07 M291.77 71.89 C302.19 57.55, 313.5 43.39, 336.43 17.59 M294.58 69.41 C303.5 60.61, 314.27 45.95, 339.2 19.52 M296.67 74.18 C305.21 59.5, 315.97 50.62, 337.09 24.86 M298.05 72.78 C311.09 55.56, 327.96 38.44, 337.49 27.83 M304.1 68.63 C309.05 62.47, 321.22 45.79, 340.73 31.12 M304.64 68.91 C311.16 59.02, 320.17 50.67, 337.33 31.43 M310.36 72.96 C318.76 61.16, 334.19 44.73, 341.14 36.88 M307.12 71.43 C319.1 60.49, 327.12 51.45, 337.34 37.05 M314.69 67.56 C324.52 63.26, 330.76 56.24, 333.06 42.01 M314.57 71.72 C321.73 63.03, 323.54 56.97, 337.47 43.83 M315.72 73.98 C325.19 61.65, 332.43 58.2, 338.48 52.81 M321.29 69.85 C323.94 67.59, 330.25 59.6, 335.87 52.76 M322.57 72.92 C331.98 63.56, 332.54 58.08, 338.81 56.54 M324.36 71.19 C326.51 68.1, 330.43 64.65, 337.74 57.59 M332.04 69.56 C331.41 66.83, 336.54 65.57, 335.45 61.85 M331.19 70.38 C332.42 67.91, 334.46 65.96, 336.65 63.07 M0.29 69.78 C0.29 69.78, 0.29 69.78, 0.29 69.78 M0.29 69.78 C0.29 69.78, 0.29 69.78, 0.29 69.78 M5.96 70.92 C5.45 67.32, 3.79 65.2, 1.13 65.58 M6.59 69.7 C3.93 68.2, 3.12 66.52, 0.67 64.41 M9.48 67 C9.65 67.68, 4.78 62.38, -2.03 62.13 M13.44 68.91 C6.67 64.63, 4.04 61.46, 1.65 60.51 M20.07 66.81 C15.69 61.59, 10.07 62.59, -0.5 50.48 M16.24 70.17 C13.56 65.41, 8.41 61.41, 0.98 55.22 M20.65 69.08 C15.48 61.92, 8.06 51.18, 1.17 52.42 M24.53 68.4 C20.58 65.99, 15.78 62.44, -0.82 48.98 M27.95 66.73 C21.44 58.38, 5.06 47.82, -3.15 44.43 M31.04 71.42 C18.82 59.29, 8.48 50.55, -0.98 43.99 M40.03 66.78 C28.15 56.74, 9.38 48.26, -0.79 41.69 M37.8 70.16 C21.67 56.43, 5.68 46.27, 1.21 36.97 M39.4 68.1 C27.32 57.7, 6.63 36.68, -1.21 33.99 M40.82 69.26 C32.69 62.3, 20.74 49.15, -1.19 33.05 M49.44 69.1 C32.83 56.03, 19.11 40.35, 3.58 23.33 M49.01 69.3 C31.64 54.92, 14.61 37.38, 1.55 27.87 M53.99 73.46 C37.48 55.68, 13.83 35.72, -1.32 23.04 M56.42 68.81 C36.12 51.1, 15.24 33.01, -2.09 21.11 M61.74 65.81 C39.15 48.39, 21.31 32.46, 1.91 15.41 M61.1 70.56 C48.24 57.75, 32.22 42.63, -0.61 18.54 M70.1 70.14 C39.04 45.44, 22.32 27.23, -0.57 14.85 M65.63 68.29 C52.76 56.04, 37.48 44.66, -1.38 9.65 M73.08 68.13 C54.66 54.38, 28.08 30.65, 1.4 9.45 M71.48 71.49 C57.07 55.24, 40.18 42.19, 1.61 5.61 M81.66 66.91 C64.18 57.2, 45.6 44.42, 1.52 0.15 M79.98 69.68 C47.61 41.1, 17.46 13.48, -2.08 0.94 M87.44 68.7 C65.49 51.97, 40.62 30.39, 3.05 0.35 M86.53 68.39 C69.87 54.69, 52.69 39.91, 3.1 -2.55 M90.95 66.61 C58.23 45.09, 27.84 16.8, 8.04 1 M93.47 69.44 C70.23 50.59, 47.42 29.79, 10.61 -4.1 M93.6 66.94 C66.06 42.85, 33.29 12.94, 16.74 1.06 M96.59 67.69 C68.6 44.25, 39.43 21.72, 15.74 -1.19 M101.52 67.57 C88.78 52.09, 65.52 41.22, 20.54 -2.27 M105.54 69.82 C78.54 48.77, 51.85 24.91, 19.09 -0.88 M109.91 65.7 C85.23 44.61, 60.16 26.57, 26.53 -5.11 M110.74 68.58 C80.75 45.67, 51.46 20.53, 27.76 -2.86 M118.74 71.52 C80.53 40.49, 49.85 17.65, 29.17 -3.22 M115.62 68.81 C87.86 43, 57.87 18.14, 33.51 -3.41 M125.05 67.93 C107.76 54.14, 83.15 37.81, 38.62 -4.26 M123.52 69.71 C98.1 47.66, 70.94 25.45, 37.7 -3.16 M126.83 68.96 C96.68 42.79, 65.97 11, 48.65 -5.39 M126.12 67.55 C100.06 44.96, 74.2 22.95, 45.74 -2.31 M130.96 70.05 C107.94 40.05, 76.82 11.93, 48.51 1 M133.92 68.54 C102.83 41.38, 76.47 15.41, 51.53 -1.87 M141.52 67.86 C118.72 54.69, 102.8 36.64, 55.28 -4.85 M141.14 68.95 C123.43 54.25, 105.94 40.57, 56.38 -1.4 M147.45 69.88 C122.11 48.8, 95.11 29.61, 65.52 -0.53 M147.93 71.27 C119.31 41.74, 87.18 15.73, 65.22 -1.01 M150.89 66.24 C132.19 49.71, 107.76 32.79, 71.64 -1.6 M153.27 68.35 C124.09 43.9, 92.37 17.31, 69.51 -3.07 M159.11 68.02 C132.96 48.23, 111.04 30.15, 73.78 -3.28 M157.47 68.23 C129.46 44.96, 97.23 17.98, 75.69 -1.49 M164.32 69.62 C146.33 50.76, 120.48 38.51, 79.65 -6.14 M166.56 68.9 C148.66 55.04, 130.23 39.58, 83.65 -0.89 M168.1 72.52 C138.91 45.17, 113.42 24.55, 84.97 -4.25 M171.23 68.54 C144.22 48.45, 120.16 29.56, 87.6 -4.43 M173 66.92 C154.85 53.25, 135.45 34.37, 93.04 0.39 M175.04 67.53 C153.71 48.28, 132.8 29.64, 94.31 -1.69 M182.9 71.51 C161.26 47.96, 145.73 34.7, 103.12 -6.33 M181.33 70.74 C152.52 46.42, 124.34 21.16, 100.05 -0.51 M190.93 71.83 C169 52.39, 152.05 39.33, 102.33 -4.32 M189.68 70.26 C157.76 41.4, 122.99 14.05, 104.97 -2.17 M195.3 66.6 C174.1 55.55, 153.91 32.12, 109.53 -0.94 M194.36 70.2 C178.64 57.16, 161.06 43.08, 113.63 -2.62 M203.68 71.5 C178.38 57.03, 159.02 37.43, 119.64 0.82 M201.21 70.91 C170.16 41.66, 136.81 15.81, 117.82 -2.25 M204.88 72.8 C191.88 51.54, 172.61 36.78, 127.33 -0.1 M205.89 69.02 C184.45 50.24, 162.84 30.53, 124.88 -3.86 M213.14 71.14 C196.8 51.17, 180.62 34.44, 127.36 -2.99 M214.8 69.72 C180.06 43.98, 150.71 16.54, 132.53 -2.41 M220.06 71.89 C197.72 50.48, 171.42 33.03, 134.46 -3.06 M219.47 67.46 C186.01 42.59, 155.97 17.59, 137.34 -2.24 M222.49 71.46 C197.52 43.98, 162.97 14.32, 143.22 -1.08 M225.08 68.77 C204.67 50.51, 184.05 34.51, 141.21 -4.32 M230.83 73.12 C198.46 47.86, 175.42 19.55, 148.44 0.38 M229.34 70.51 C206.23 47.53, 179.65 26.09, 148.24 -1.98 M236.74 68.57 C218.42 59.1, 201.96 41.38, 156.77 -1.38 M238.69 69.87 C218.47 53.04, 202.16 40.56, 154.98 -0.9 M245.46 69.79 C218.1 47.02, 194.33 29.15, 159.08 -5.48 M243.24 70.64 C218.28 46.9, 195.87 25.73, 159.3 -2.85 M247.7 71.34 C221.75 45.61, 197.81 24.65, 170.34 -1.03 M249.2 69.96 C233.55 53.28, 214.77 36.89, 166.89 -0.94 M259.54 72.71 C242.06 54.87, 221.23 40.32, 169.5 -4.88 M257.34 71.12 C232.06 46.05, 206.05 27.52, 171.68 -0.82 M262.76 66.11 C229.8 42.15, 204.56 19.04, 179.84 -5.75 M259.91 67.76 C230.72 43.04, 197.66 13.15, 178.74 -2.47 M264.5 70.08 C249.1 50.24, 226.03 29.74, 188.65 -6.66 M266.82 67.96 C241.33 47.05, 213.18 23.4, 184.53 -2.11 M277.61 69.29 C251.37 47.86, 225.15 24.96, 195.52 -1.13 M274.6 70.43 C245.38 46.44, 220.61 23.17, 191.78 -2.04 M280.55 68.87 C258.27 50.73, 234.7 30.28, 200.29 -2.86 M280.8 69.31 C255.72 44.99, 226.21 21.7, 197.97 -3.81 M285.25 72.76 C265.61 48.62, 243.58 29.73, 202.89 0.66 M288.5 68.94 C271.96 58.18, 252.52 39.87, 201.74 -3.43 M289.49 67.49 C260.28 40.44, 227.1 14.68, 207.72 -4.11 M293.14 70.09 C271.56 49.71, 250.54 33.71, 207.83 -3.22 M300.51 67.81 C279.61 55.9, 258.79 37.69, 219.3 0.89 M298.83 68.01 C272.75 42.66, 243.75 18.41, 217.3 -3.65 M303.41 68.47 C270.91 37.28, 240.58 13.37, 222.6 -2.92 M305.16 70.66 C287.74 54.97, 267.58 35.59, 220.42 -3.22 M313 70.53 C283.77 45.05, 248.4 15.66, 230.93 -0.4 M311.75 69.49 C295.46 54.52, 278.43 41.75, 227.13 -1.59 M317.71 71.77 C294.87 46.31, 275.65 33.31, 233.84 -4.35 M316.63 68.2 C300.18 57.75, 282.14 41.33, 235.5 -0.87 M323.93 70.42 C295.42 44.47, 277.13 27.8, 237.48 0.27 M321.17 71 C296.16 43.28, 267.6 20.11, 238.61 -3.36 M327.64 66.79 C311.42 54.49, 289.96 35.94, 248.22 -2.04 M328.32 70.64 C304.87 49.59, 280.56 28.44, 244.81 -1.48 M334.04 66.42 C314.32 56.65, 297.83 35.81, 249.01 -1.52 M334.71 67.96 C309.26 46.71, 281.86 24.12, 252.6 -3.61 M330.42 59.79 C320.41 51.96, 303.22 35.75, 259.29 -0.85 M334.15 62.11 C315.09 47.89, 299.05 30.79, 259.07 -3.24 M335.59 60.44 C324.32 44.82, 309.17 33.8, 262.85 -0.74 M335.61 57.06 C320.72 46.5, 309.3 33.46, 266.39 -2.22 M337.92 52.33 C318.14 38.21, 305.14 20.31, 268.19 -4.21 M335.83 55.41 C317.32 34.61, 298.17 17.9, 270.7 -2.55 M336.52 44.78 C317.4 36.05, 301.91 19.48, 280.17 1.07 M333.01 49.76 C314.64 26.73, 289.6 9.72, 276.29 -2.29 M333.08 46.75 C321.37 27.2, 298.01 10.41, 280.36 -1.45 M333.3 43.45 C313.99 22.54, 293.54 7.33, 284.59 -3.37 M336.27 38.71 C322.38 32.35, 311.86 24.29, 290.93 -2.87 M335.68 38.82 C318.6 19.07, 297.59 3.02, 288.55 -2.8 M333.38 30.18 C324.18 22.56, 314.57 16.78, 298.55 -6.45 M334.2 33.26 C320.23 20.11, 304.99 5.96, 293.12 -1.86 M333.86 22.93 C319.16 13.31, 313.12 4.05, 302.69 -3.88 M334.11 26.77 C321.47 15.13, 311.24 4.97, 302.14 -3.94 M333.09 20.53 C325.13 8.62, 311.82 6.52, 307.33 -1.65 M334.11 22.02 C327.11 12.42, 316.36 5.11, 306.61 -4.43 M331.85 15.57 C329.86 10.41, 322.47 -1.65, 313.28 -5.22 M334.5 15.93 C330.85 9.45, 324.17 7.92, 311.52 -0.49 M332.08 7.17 C331.83 2.15, 319.75 2.7, 322.08 -0.73 M335.37 11.69 C329.47 6.12, 325.45 5.18, 320.36 -4.34 M333.27 4.64 C329.12 3.75, 328.04 -0.17, 326.94 -3.82 M333.52 5.95 C332.68 3.84, 330.5 0.84, 325.56 -2.47" stroke="#ced4da" stroke-width="0.5" fill="none"></path><path d="M2.23 1.57 C80.65 2.66, 167.29 -1.07, 336.92 1.46 M0.91 -0.16 C127.66 -0.58, 254.91 -0.48, 333.22 -0.67 M334.94 -0.49 C332.89 22.26, 335.91 33.67, 332.59 70.37 M336.27 1.08 C334.81 20.36, 335.65 40.14, 332.72 69.53 M333.16 71.28 C213.26 70.52, 96.88 71.39, -0.76 71.44 M333.78 68.97 C215.77 68.74, 97.08 68.76, -0.91 68.55 M2.61 66.05 C0.75 50.43, -2.94 29.62, -2.71 -1.47 M-0.22 67.76 C1.09 52.87, -0.12 41.9, -1.96 1.02" stroke="#000000" stroke-width="1" fill="none"></path></g><g transform="translate(1121.2238354311753 274.0429155039784) rotate(0 125 17.5)"><text x="0" y="25" font-family="Virgil, Segoe UI Emoji" font-size="28px" fill="#000000" text-anchor="start" style="white-space: pre;" direction="ltr">Non-Viewable Views</text></g></svg>